<?xml version="1.0" encoding="utf-8"?>
<!-- Generator: Adobe Illustrator 16.0.0, SVG Export Plug-In . SVG Version: 6.00 Build 0)  -->
<!DOCTYPE svg PUBLIC "-//W3C//DTD SVG 1.1//EN" "http://www.w3.org/Graphics/SVG/1.1/DTD/svg11.dtd">
<svg version="1.1" id="Layer_1" xmlns="http://www.w3.org/2000/svg" xmlns:xlink="http://www.w3.org/1999/xlink" x="0px" y="0px"
	 width="181px" height="59px" viewBox="0 0 181 59" enable-background="new 0 0 181 59" xml:space="preserve">
<polygon fill="#003D76" points="44.123,51.002 44.123,54.333 43.736,54.333 43.736,50.673 46.012,50.673 46.012,51.002 "/>
<path fill="#003D76" d="M49.79,54.375c-0.554,0-0.798-0.162-1.062-0.515v2.219H48.34v-5.406h0.388v0.474
	c0.288-0.365,0.523-0.52,1.053-0.52c0.942,0,1.398,0.616,1.398,1.884C51.179,53.755,50.716,54.375,49.79,54.375 M49.76,50.968
	c-0.713,0-1.032,0.475-1.032,1.533c0,1.063,0.311,1.533,1.032,1.533c0.714,0,1.031-0.47,1.031-1.523
	C50.791,51.442,50.481,50.968,49.76,50.968"/>
<path fill="#003D76" d="M56.103,54.333v-0.364c-0.31,0.309-0.6,0.406-1.116,0.406c-0.539,0-0.841-0.09-1.078-0.331
	c-0.166-0.176-0.265-0.441-0.265-0.714c0-0.666,0.478-1.056,1.274-1.056h1.185v-0.409c0-0.585-0.29-0.897-1.032-0.897
	c-0.518,0-0.782,0.132-1.009,0.465l-0.282-0.241c0.312-0.433,0.699-0.563,1.292-0.563c0.964,0,1.417,0.434,1.417,1.199v2.505H56.103
	z M56.103,52.584h-1.139c-0.63,0-0.933,0.254-0.933,0.738c0,0.485,0.295,0.712,0.956,0.712c0.334,0,0.652-0.03,0.911-0.279
	c0.138-0.129,0.206-0.356,0.206-0.699V52.584z"/>
<polygon fill="#003D76" points="61.83,54.333 61.83,52.602 59.835,52.602 59.835,54.333 59.447,54.333 59.447,50.673 59.835,50.673 
	59.835,52.274 61.83,52.274 61.83,50.673 62.217,50.673 62.217,54.333 "/>
<polygon fill="#003D76" points="67.695,54.333 67.695,51.237 65.594,54.333 65.206,54.333 65.206,50.673 65.594,50.673 
	65.594,53.769 67.695,50.673 68.083,50.673 68.083,54.333 "/>
<path fill="#003D76" d="M75.973,54.375c-0.554,0-0.797-0.162-1.063-0.515v2.219h-0.386v-5.406h0.386v0.474
	c0.289-0.365,0.524-0.52,1.056-0.52c0.94,0,1.396,0.616,1.396,1.884C77.362,53.755,76.898,54.375,75.973,54.375 M75.943,50.968
	c-0.715,0-1.033,0.475-1.033,1.533c0,1.063,0.311,1.533,1.033,1.533c0.714,0,1.031-0.47,1.031-1.523
	C76.974,51.442,76.664,50.968,75.943,50.968"/>
<path fill="#003D76" d="M82.285,54.333v-0.364c-0.31,0.309-0.599,0.406-1.115,0.406c-0.539,0-0.843-0.09-1.079-0.331
	c-0.166-0.176-0.265-0.441-0.265-0.714c0-0.666,0.48-1.056,1.274-1.056h1.185v-0.409c0-0.585-0.289-0.897-1.032-0.897
	c-0.515,0-0.781,0.132-1.009,0.465l-0.281-0.241c0.312-0.433,0.698-0.563,1.29-0.563c0.963,0,1.419,0.434,1.419,1.199v2.505H82.285z
	 M82.285,52.584h-1.139c-0.628,0-0.932,0.254-0.932,0.738c0,0.485,0.294,0.712,0.956,0.712c0.335,0,0.653-0.03,0.911-0.279
	c0.135-0.129,0.204-0.356,0.204-0.699V52.584z"/>
<path fill="#003D76" d="M86.585,54.369c-0.583,0-0.977-0.129-1.41-0.523l0.265-0.264c0.349,0.339,0.63,0.442,1.122,0.442
	c0.486,0,1.032-0.262,1.032-0.71c0-0.461-0.349-0.699-0.842-0.699h-0.522V52.29h0.538c0.441,0,0.758-0.235,0.758-0.667
	c0-0.418-0.356-0.661-0.903-0.661c-0.393,0-0.736,0.106-1.055,0.326l-0.228-0.271c0.403-0.282,0.796-0.391,1.282-0.391
	c0.729,0,1.282,0.358,1.282,0.988c0,0.379-0.212,0.708-0.613,0.828c0.41,0.111,0.675,0.448,0.675,0.879
	C87.967,53.971,87.322,54.369,86.585,54.369"/>
<path fill="#003D76" d="M92.466,54.333h-1.697v-3.66h1.662c0.627,0,1.053,0.374,1.053,0.942c0,0.408-0.235,0.697-0.622,0.82
	c0.402,0.129,0.682,0.439,0.682,0.9C93.543,53.951,93.142,54.333,92.466,54.333 M92.347,51h-1.193v1.274h1.193
	c0.485,0,0.75-0.235,0.75-0.638C93.097,51.229,92.823,51,92.347,51 M92.382,52.6h-1.229v1.404h1.229
	c0.487,0,0.775-0.272,0.775-0.697C93.157,52.883,92.869,52.6,92.382,52.6"/>
<polygon fill="#003D76" points="98.832,54.333 98.832,51.237 96.729,54.333 96.344,54.333 96.344,50.673 96.729,50.673 
	96.729,53.769 98.832,50.673 99.221,50.673 99.221,54.333 "/>
<polygon fill="#003D76" points="103.255,51.002 103.255,54.333 102.868,54.333 102.868,51.002 101.548,51.002 101.548,50.673 
	104.498,50.673 104.498,51.002 "/>
<polygon fill="#003D76" points="109.317,54.333 109.317,51.237 107.215,54.333 106.828,54.333 106.828,50.673 107.215,50.673 
	107.215,53.769 109.317,50.673 109.704,50.673 109.704,54.333 "/>
<path fill="#003D76" d="M114.81,54.333v-1.487h-1.023l-0.865,1.487h-0.455l0.895-1.506c-0.562-0.083-0.917-0.5-0.917-1.075
	c0-0.652,0.447-1.079,1.13-1.079h1.623v3.66H114.81z M114.81,51.002h-1.16c-0.525,0-0.812,0.272-0.812,0.756
	c0,0.485,0.286,0.759,0.812,0.759h1.16V51.002z"/>
<polygon fill="#003D76" points="124.126,54.333 124.126,51.237 122.024,54.333 121.639,54.333 121.639,50.673 122.024,50.673 
	122.024,53.769 124.126,50.673 124.515,50.673 124.515,54.333 "/>
<path fill="#003D76" d="M131.676,55.325c-0.084,0.228-0.144,0.323-0.251,0.425c-0.167,0.152-0.401,0.235-0.689,0.235h-0.185v-0.341
	h0.147c0.378,0,0.522-0.107,0.666-0.501l0.297-0.811l-1.337-3.66h0.424l1.102,3.203l1.102-3.203h0.424L131.676,55.325z"/>
<path fill="#003D76" d="M137.153,54.375c-1.018,0-1.631-0.704-1.631-1.874c0-1.167,0.613-1.874,1.631-1.874
	c0.546,0,0.812,0.175,1.183,0.564l-0.264,0.241c-0.274-0.294-0.51-0.465-0.926-0.465c-0.424,0-0.768,0.171-0.985,0.484
	c-0.183,0.261-0.252,0.558-0.252,1.059c0,0.484,0.069,0.788,0.252,1.036c0.226,0.329,0.553,0.487,0.978,0.487
	c0.424,0,0.652-0.158,0.934-0.462l0.264,0.241C137.972,54.201,137.699,54.375,137.153,54.375"/>
<polygon fill="#003D76" points="143.375,54.333 143.375,51.002 141.38,51.002 141.38,54.333 140.991,54.333 140.991,50.673 
	143.761,50.673 143.761,54.333 "/>
<path fill="#003D76" d="M146.926,52.584c0.016,0.397,0.039,0.561,0.129,0.777c0.182,0.448,0.546,0.665,1.069,0.665
	c0.199,0,0.364-0.03,0.515-0.088c0.169-0.07,0.266-0.146,0.487-0.354l0.288,0.229c-0.269,0.263-0.394,0.349-0.614,0.44
	c-0.196,0.083-0.426,0.125-0.692,0.125c-1.029,0-1.57-0.647-1.57-1.898c0-1.154,0.556-1.854,1.466-1.854
	c0.911,0,1.464,0.678,1.464,1.787v0.17H146.926z M149.013,51.752c-0.144-0.493-0.524-0.78-1.01-0.78
	c-0.425,0-0.783,0.233-0.948,0.611c-0.082,0.19-0.113,0.349-0.129,0.691h2.155C149.066,51.988,149.058,51.895,149.013,51.752"/>
<polygon fill="#003D76" points="154.141,54.333 153.177,52.792 152.197,54.333 151.726,54.333 152.964,52.465 151.781,50.673 
	152.251,50.673 153.177,52.146 154.086,50.673 154.557,50.673 153.374,52.465 154.61,54.333 "/>
<path fill="#003D76" d="M159.315,54.333v-0.364c-0.311,0.309-0.602,0.406-1.116,0.406c-0.538,0-0.841-0.09-1.079-0.331
	c-0.166-0.176-0.265-0.441-0.265-0.714c0-0.666,0.48-1.056,1.274-1.056h1.186v-0.409c0-0.585-0.291-0.897-1.033-0.897
	c-0.516,0-0.783,0.132-1.011,0.465l-0.279-0.241c0.312-0.433,0.697-0.563,1.29-0.563c0.965,0,1.417,0.434,1.417,1.199v2.505H159.315
	z M159.315,52.584h-1.14c-0.628,0-0.934,0.254-0.934,0.738c0,0.485,0.295,0.712,0.957,0.712c0.336,0,0.654-0.03,0.912-0.279
	c0.136-0.129,0.204-0.356,0.204-0.699V52.584z"/>
<path fill="#0070B9" d="M50.153,41.226H47.71v5.794h-3.994V30.771h6.437c3.218,0,5.546,2.192,5.546,5.228
	C55.699,39.035,53.394,41.226,50.153,41.226 M49.97,34.355h-2.26v3.284h2.26c1.004,0,1.734-0.707,1.734-1.642
	C51.704,35.063,50.974,34.355,49.97,34.355"/>
<polygon fill="#0070B9" points="58.026,47.023 58.026,30.772 69.073,30.772 69.073,34.332 62.022,34.332 62.022,37.048 
	68.046,37.048 68.046,40.609 62.022,40.609 62.022,43.463 69.073,43.463 69.073,47.023 "/>
<path fill="#0070B9" d="M70.693,41.957h3.972c0.274,0.91,0.822,1.732,2.145,1.732c1.324,0,2.007-0.707,2.007-1.646
	c0-1.002-0.591-1.709-1.961-1.709H74.71v-3.241h2.146c1.097,0,1.78-0.592,1.78-1.551c0-0.891-0.708-1.485-1.802-1.485
	c-1.325,0-1.873,0.869-2.146,1.783h-3.97c0.568-3.493,3.058-5.206,6.138-5.206c3.332,0,5.751,1.805,5.751,4.611
	c0,1.46-0.845,2.694-1.963,3.377c1.28,0.643,2.192,1.918,2.192,3.563c0,3.011-2.513,4.976-6.002,4.976
	C73.752,47.16,71.263,45.446,70.693,41.957"/>
<path fill="#0070B9" d="M91.966,44.17c-0.617,1.439-1.804,2.854-3.881,2.854h-2.213v-3.561h1.414c1.233,0,1.646-0.938,1.805-1.576
	l-5.137-11.116h4.2l2.853,6.805l2.579-6.805h4.085L91.966,44.17z"/>
<path fill="#0070B9" d="M107.004,47.023V34.332h-2.828v4.245c0,6.803-1.689,8.446-5.204,8.446h-1.53v-3.561h0.479
	c1.416,0,2.398-0.754,2.398-4.886v-7.805H111v16.251H107.004z"/>
<path fill="#0070B9" d="M120.837,47.023h-6.549V30.771h3.992v5.796h2.557c3.24,0,5.431,2.195,5.431,5.228
	C126.268,44.831,124.052,47.023,120.837,47.023 M120.539,40.151h-2.259v3.312h2.259c1.005,0,1.735-0.732,1.735-1.669
	C122.274,40.858,121.544,40.151,120.539,40.151"/>
<polygon fill="#0070B9" points="134.484,34.332 134.484,47.023 130.491,47.023 130.491,34.332 126.498,34.332 126.498,30.771 
	138.48,30.771 138.48,34.332 "/>
<path fill="#0070B9" d="M148.521,47.023l-0.751-2.421h-5.001l-0.796,2.421h-4.18l5.916-16.253h3.078l5.91,16.253H148.521z
	 M145.35,36.935l-1.461,4.337h2.831L145.35,36.935z"/>
<polygon fill="#0070B9" points="160.002,34.332 160.002,47.023 156.007,47.023 156.007,34.332 152.014,34.332 152.014,30.771 
	163.996,30.771 163.996,34.332 "/>
<path fill="#FFFFFF" d="M11.004,28.286V13.683H7.748v4.885c0,7.827-1.945,9.717-5.988,9.717H0v-4.097h0.55
	c1.63,0,2.758-0.866,2.758-5.62V9.586H15.6v18.7H11.004z"/>
<path fill="#FFFFFF" d="M26.707,25.002c-0.708,1.655-2.074,3.283-4.465,3.283h-2.547V24.19h1.628c1.419,0,1.892-1.079,2.076-1.815
	l-5.911-12.79h4.833l3.283,7.828l2.968-7.828h4.702L26.707,25.002z"/>
<path fill="#FFFFFF" d="M43.882,28.286v-6.645c-0.866,0.104-2.257,0.396-4.438,0.396c-2.312,0-4.676-1.63-4.676-4.492V9.586h4.598
	v6.671c0,1.026,0.629,1.655,1.679,1.655c1.025,0,2.312-0.131,2.837-0.237V9.586h4.596v18.7H43.882z"/>
<polygon fill="#FFFFFF" points="52.26,28.286 52.26,9.586 56.854,9.586 56.854,24.188 60.977,24.188 60.977,9.586 65.574,9.586 
	65.574,24.188 69.697,24.188 69.697,9.586 74.294,9.586 74.294,28.286 "/>
<polygon fill="#FFFFFF" points="88.08,28.286 88.08,18.096 82.093,28.286 78.074,28.286 78.074,9.586 82.67,9.586 82.67,19.777 
	88.658,9.586 92.676,9.586 92.676,28.286 "/>
<polygon fill="#FFFFFF" points="106.463,28.286 106.463,18.096 100.475,28.286 96.456,28.286 96.456,9.586 101.052,9.586 
	101.052,19.777 107.039,9.586 111.058,9.586 111.058,28.286 "/>
<path fill="#0097D7" d="M114.224,28.243v-4.92l8.579-9.312c0.863-0.93,1.197-1.529,1.197-2.527c0-1.296-0.732-2.194-2.13-2.194
	c-0.995,0-2.192,0.466-2.192,2.295h-5.454c0-4.656,3.524-7.216,7.646-7.216c4.39,0,7.583,2.694,7.583,7.15
	c0,2.493-1.031,3.823-2.928,5.818l-5.65,5.986h8.578v4.92H114.224z"/>
<path fill="#0097D7" d="M138.783,28.442c-3.922,0-7.615-2.493-7.615-7.382v-9.31c0-4.888,3.693-7.382,7.615-7.382
	c3.923,0,7.615,2.494,7.615,7.382v9.31C146.398,25.949,142.706,28.442,138.783,28.442 M140.945,11.751
	c0-1.663-0.998-2.461-2.162-2.461c-1.165,0-2.162,0.798-2.162,2.461v9.343c0,1.663,0.997,2.427,2.162,2.427
	c1.164,0,2.162-0.764,2.162-2.427V11.751z"/>
<path fill="#0097D7" d="M148.75,28.243v-4.92l8.577-9.312c0.867-0.93,1.198-1.529,1.198-2.527c0-1.296-0.73-2.194-2.127-2.194
	c-0.998,0-2.195,0.466-2.195,2.295h-5.453c0-4.656,3.526-7.216,7.648-7.216c4.39,0,7.58,2.694,7.58,7.15
	c0,2.493-1.032,3.823-2.926,5.818l-5.652,5.986h8.578v4.92H148.75z"/>
<path fill="#0097D7" d="M173.308,28.442c-3.922,0-7.611-2.493-7.611-7.382v-9.31c0-4.888,3.689-7.382,7.611-7.382
	c3.926,0,7.616,2.494,7.616,7.382v9.31C180.924,25.949,177.233,28.442,173.308,28.442 M175.471,11.751
	c0-1.663-0.998-2.461-2.163-2.461c-1.162,0-2.158,0.798-2.158,2.461v9.343c0,1.663,0.996,2.427,2.158,2.427
	c1.165,0,2.163-0.764,2.163-2.427V11.751z"/>
<path fill="#0097D7" d="M101.261,5.657c0-1.468,1.19-2.657,2.656-2.657c1.47,0,2.66,1.189,2.66,2.657c0,1.468-1.19,2.657-2.66,2.657
	C102.451,8.314,101.261,7.125,101.261,5.657"/>
</svg>
